<svg width="1777" height="370" viewBox="0 0 1777 370" fill="none" xmlns="http://www.w3.org/2000/svg">
  <rect width="1777" height="370" rx="30" fill="#000000" />
  <text x="50%" y="40%" dominant-baseline="middle" text-anchor="middle" font-family="Montserrat, Arial, sans-serif" font-weight="700" font-size="130" fill="#ffffff"> Roy Ayala </text>
  <g transform="translate(673.688,240) scale(0.234)">
    <!-- 60/256 ≈ 0.234 para ajustar tamaño -->
    <g transform="translate(0,0)" fill="none">
      <rect width="256" height="256" fill="#007acc" rx="60" />
      <path fill="#fff" d="m56.611 128.849l-.081 10.484h33.32v94.679h23.569v-94.679h33.32v-10.281c0-5.689-.121-10.443-.284-10.565c-.122-.162-20.399-.244-44.983-.203l-44.739.122zm149.956-10.741c6.501 1.626 11.459 4.511 16.01 9.224c2.357 2.52 5.851 7.112 6.136 8.209c.081.325-11.053 7.802-17.798 11.987c-.244.163-1.22-.894-2.317-2.519c-3.291-4.795-6.745-6.868-12.028-7.233c-7.761-.529-12.759 3.535-12.718 10.321c0 1.991.284 3.169 1.097 4.795c1.706 3.535 4.876 5.648 14.832 9.955c18.326 7.884 26.168 13.085 31.045 20.48c5.445 8.249 6.664 21.415 2.966 31.208c-4.063 10.646-14.141 17.879-28.323 20.277c-4.388.772-14.791.65-19.504-.203c-10.281-1.829-20.033-6.908-26.047-13.572c-2.357-2.601-6.949-9.387-6.664-9.875c.121-.162 1.178-.812 2.356-1.503c1.138-.65 5.446-3.129 9.509-5.486l7.355-4.267l1.544 2.276c2.154 3.291 6.867 7.802 9.712 9.305c8.167 4.308 19.383 3.698 24.909-1.259c2.357-2.154 3.332-4.389 3.332-7.68c0-2.967-.366-4.267-1.91-6.502c-1.991-2.844-6.054-5.242-17.595-10.24c-13.206-5.689-18.895-9.224-24.096-14.832c-3.007-3.25-5.852-8.452-7.03-12.8c-.975-3.616-1.219-12.678-.447-16.335c2.722-12.759 12.353-21.658 26.25-24.3c4.511-.853 14.994-.528 19.424.569" />
    </g>
    <g transform="translate(316,0)" fill="none">
      <rect width="256" height="256" fill="#f4f2ed" rx="60" />
      <path fill="#00d8ff" d="M128.001 146.951c10.304 0 18.656-8.353 18.656-18.656s-8.352-18.656-18.656-18.656s-18.656 8.353-18.656 18.656s8.353 18.656 18.656 18.656" />
      <path stroke="#00d8ff" stroke-width="8.911" d="M128.002 90.363c25.048 0 48.317 3.594 65.862 9.635C215.003 107.275 228 118.306 228 128.295c0 10.409-13.774 22.128-36.475 29.649c-17.162 5.686-39.746 8.654-63.523 8.654c-24.378 0-47.463-2.786-64.819-8.717C41.225 150.376 28 138.506 28 128.295c0-9.908 12.41-20.854 33.252-28.12c17.61-6.14 41.453-9.812 66.746-9.812z" clip-rule="evenodd" />
      <path stroke="#00d8ff" stroke-width="8.911" d="M94.981 109.438c12.514-21.698 27.251-40.06 41.249-52.24c16.864-14.677 32.914-20.425 41.566-15.436c9.017 5.2 12.288 22.988 7.463 46.41c-3.645 17.707-12.359 38.753-24.238 59.351c-12.179 21.118-26.124 39.724-39.931 51.792c-17.471 15.272-34.362 20.799-43.207 15.698c-8.583-4.946-11.865-21.167-7.747-42.852c3.479-18.323 12.21-40.812 24.841-62.723z" clip-rule="evenodd" />
      <path stroke="#00d8ff" stroke-width="8.911" d="M95.012 147.578c-12.549-21.674-21.093-43.616-24.659-61.826c-4.293-21.941-1.258-38.716 7.387-43.72c9.009-5.216 26.052.834 43.934 16.712c13.52 12.004 27.403 30.061 39.316 50.639c12.214 21.098 21.368 42.473 24.929 60.461c4.506 22.764.859 40.157-7.978 45.272c-8.574 4.964-24.265-.291-40.996-14.689c-14.136-12.164-29.26-30.959-41.933-52.849Z" clip-rule="evenodd" />
    </g>
    <g transform="translate(632,0)" fill="none">
      <rect width="256" height="256" fill="#f4f2ed" rx="60" />
      <path fill="url(#SVGYCM7xdyn)" fill-rule="evenodd" d="M83 110q9-36 45-36c36 0 40.5 27 58.5 31.5q18 4.502 31.5-13.5q-9 36-45 36c-36 0-40.5-27-58.5-31.5Q96.5 92 83 110m-45 54q9-36 45-36c36 0 40.5 27 58.5 31.5q18 4.502 31.5-13.5q-9 36-45 36c-36 0-40.5-27-58.5-31.5q-18-4.502-31.5 13.5" clip-rule="evenodd" />
      <defs>
        <linearGradient id="SVGYCM7xdyn" x1="86.5" x2="163.5" y1="74" y2="185.5" gradientUnits="userSpaceOnUse">
          <stop stop-color="#32b1c1" />
          <stop offset="1" stop-color="#14c6b7" />
        </linearGradient>
      </defs>
    </g>
    <g transform="translate(948,0)" fill="none">
      <rect width="256" height="256" fill="url(#SVGqPMUpb1e)" rx="60" />
      <path fill="#31274a" fill-rule="evenodd" d="M157.719 33.011c1.634 2.028 2.466 4.765 4.132 10.237l36.396 119.561a151.5 151.5 0 0 0-43.513-14.732l-23.697-80.08a3.086 3.086 0 0 0-4.809-1.593c-.533.4-.922.962-1.109 1.602l-23.411 80.031A151.5 151.5 0 0 0 58 162.791l36.573-119.57c1.673-5.464 2.507-8.195 4.141-10.219a13.44 13.44 0 0 1 5.449-4.032c2.414-.97 5.27-.97 10.984-.97h26.123c5.721 0 8.581 0 10.997.972a13.45 13.45 0 0 1 5.452 4.04" clip-rule="evenodd" />
      <path fill="#ff5d01" fill-rule="evenodd" d="M162.074 168.499c-6 5.131-17.976 8.629-31.77 8.629c-16.931 0-31.122-5.271-34.887-12.359c-1.346 4.063-1.648 8.712-1.648 11.683c0 0-.887 14.585 9.257 24.729a9.54 9.54 0 0 1 9.538-9.538c9.028 0 9.018 7.877 9.009 14.268v.57c0 9.7 5.928 18.015 14.359 21.519a19.55 19.55 0 0 1-1.966-8.572c0-9.251 5.432-12.696 11.744-16.698c5.022-3.185 10.602-6.724 14.448-13.824a26.06 26.06 0 0 0 3.145-12.454c0-2.773-.431-5.445-1.229-7.953" clip-rule="evenodd" />
      <path fill="url(#SVGUPWE2bmY)" fill-rule="evenodd" d="M162.074 168.499c-6 5.131-17.976 8.629-31.77 8.629c-16.931 0-31.122-5.271-34.887-12.359c-1.346 4.063-1.648 8.712-1.648 11.683c0 0-.887 14.585 9.257 24.729a9.54 9.54 0 0 1 9.538-9.538c9.028 0 9.018 7.877 9.009 14.268v.57c0 9.7 5.928 18.015 14.359 21.519a19.55 19.55 0 0 1-1.966-8.572c0-9.251 5.432-12.696 11.744-16.698c5.022-3.185 10.602-6.724 14.448-13.824a26.06 26.06 0 0 0 3.145-12.454c0-2.773-.431-5.445-1.229-7.953" clip-rule="evenodd" />
      <defs>
        <linearGradient id="SVGqPMUpb1e" x1="128" x2="128" y1="0" y2="256" gradientUnits="userSpaceOnUse">
          <stop offset=".193" stop-color="#fff" />
          <stop offset="1" stop-color="#fff" />
        </linearGradient>
        <linearGradient id="SVGUPWE2bmY" x1="189.089" x2="153.565" y1="126.765" y2="201.132" gradientUnits="userSpaceOnUse">
          <stop stop-color="#ff1639" />
          <stop offset="1" stop-color="#ff1639" stop-opacity="0" />
        </linearGradient>
      </defs>
    </g>
    <g transform="translate(1264,0)" fill="none">
      <rect width="256" height="256" fill="#f4f2ed" rx="60" />
      <path fill="#fefefe" fill-rule="evenodd" d="m203.819 68.835l-63.14-37.48a23.79 23.79 0 0 0-24.361 0l-63.14 37.48C45.642 73.31 41 81.575 41 90.522v74.961c0 8.945 4.643 17.215 12.18 21.689l63.14 37.473a23.8 23.8 0 0 0 12.179 3.354a23.8 23.8 0 0 0 12.178-3.354l63.14-37.473c7.536-4.474 12.182-12.744 12.182-21.689v-74.96c0-8.948-4.646-17.214-12.18-21.688" clip-rule="evenodd" />
      <path fill="#3e474a" fill-rule="evenodd" d="m118.527 220.808l-63.14-37.474c-6.176-3.666-10.013-10.506-10.013-17.852V90.523c0-7.346 3.837-14.186 10.01-17.85l63.143-37.48a19.55 19.55 0 0 1 9.972-2.747c3.495 0 6.943.95 9.973 2.747l63.14 37.48c5.204 3.089 8.714 8.438 9.701 14.437c-2.094-4.469-6.817-5.684-12.32-2.47l-59.734 36.897c-7.448 4.354-12.94 9.24-12.945 18.221v73.604c-.004 5.378 2.168 8.861 5.504 9.871c-1.096.19-2.201.322-3.319.322a19.55 19.55 0 0 1-9.972-2.747m85.292-151.974l-63.14-37.478A23.8 23.8 0 0 0 128.499 28a23.8 23.8 0 0 0-12.181 3.356l-63.14 37.478C45.642 73.308 41 81.576 41 90.524v74.958c0 8.945 4.643 17.215 12.18 21.689l63.14 37.475A23.84 23.84 0 0 0 128.499 228a23.83 23.83 0 0 0 12.178-3.354l63.142-37.475c7.536-4.474 12.18-12.744 12.18-21.689V90.523c0-8.947-4.644-17.215-12.18-21.689" clip-rule="evenodd" />
      <path fill="#47b353" fill-rule="evenodd" d="m187.267 172.729l-15.722 9.41c-.417.243-.723.516-.726 1.017v4.114c0 .503.338.712.754.467l15.966-9.703c.416-.243.48-.708.483-1.209v-3.629c0-.5-.338-.71-.755-.467" clip-rule="evenodd" />
      <path fill="#fefefe" fill-rule="evenodd" d="M153.788 138.098c.509-.258.928.059.935.725l.053 5.439c2.277-.906 4.255-1.148 6.047-.734c.389.104.561.633.402 1.261l-1.197 4.82c-.093.364-.298.732-.545.961a1.3 1.3 0 0 1-.315.234a.7.7 0 0 1-.472.077c-.818-.185-2.763-.61-5.823.94c-3.21 1.625-4.333 4.414-4.311 6.484c.027 2.472 1.295 3.221 5.673 3.296c5.834.097 8.355 2.646 8.416 8.522c.06 5.77-3.02 11.966-7.732 15.763l.104 5.384c.006.648-.415 1.391-.924 1.649l-3.189 1.837c-.511.258-.93-.06-.937-.708l-.055-5.296c-2.731 1.135-5.499 1.409-7.267.699c-.333-.13-.476-.622-.344-1.182l1.156-4.868c.092-.384.295-.768.571-1.012q.147-.142.299-.219c.183-.092.362-.112.514-.055c1.905.642 4.342.342 6.685-.844c2.977-1.506 4.968-4.542 4.937-7.558c-.029-2.737-1.51-3.874-5.113-3.901c-4.586.013-8.861-.891-8.932-7.642c-.057-5.558 2.833-11.342 7.408-14.999l-.057-5.435c-.007-.668.401-1.403.926-1.667z" clip-rule="evenodd" />
    </g>
    <g transform="translate(1580,0)" fill="none">
      <rect width="256" height="256" fill="#2396ed" rx="60" />
      <path fill="#fff" d="M141.187 122.123h20.717v-18.744h-20.717zm-24.662 0h20.716v-18.744h-20.716zm-24.17 0h20.717v-18.744H92.355zm-24.17 0H88.41v-18.744H68.186zm-24.662 0H64.24v-18.744H43.523zm24.663-22.69h20.223V80.69H68.186zm24.17 0h20.716V80.69H92.355zm24.169 0h20.716V80.69h-20.716zm0-22.69h20.716V58h-20.716zM228 113.739s-8.879-8.386-27.129-5.426c-1.973-14.305-17.264-22.69-17.264-22.69s-14.304 17.264-3.946 36.501c-2.959 1.48-7.892 3.453-15.291 3.453H28.726c-2.467 9.372-2.467 71.521 65.602 71.521c48.832 0 85.333-22.689 102.597-64.123C222.574 134.948 228 113.738 228 113.738" />
    </g>
  </g>
</svg>