<svg width="1777" height="370" viewBox="0 0 1777 370" fill="none" xmlns="http://www.w3.org/2000/svg">
  <rect width="1777" height="370" rx="30" fill="#000000" />
  <text x="50%" y="40%" dominant-baseline="middle" text-anchor="middle" font-family="Montserrat, Arial, sans-serif" font-weight="700" font-size="130" fill="#ffffff"> Roy Ayala </text>
  <g width="100%" height="100%" transform="translate(688.5,240)">
    <g transform="translate(0,0)">
      <svg xmlns="http://www.w3.org/2000/svg" width="60" height="60" viewBox="0 0 256 256"><g fill="none"><rect width="256" height="256" fill="#007acc" rx="60"/><path fill="#fff" d="m56.611 128.849l-.081 10.484h33.32v94.679h23.569v-94.679h33.32v-10.281c0-5.689-.121-10.443-.284-10.565c-.122-.162-20.399-.244-44.983-.203l-44.739.122zm149.956-10.741c6.501 1.626 11.459 4.511 16.01 9.224c2.357 2.52 5.851 7.112 6.136 8.209c.081.325-11.053 7.802-17.798 11.987c-.244.163-1.22-.894-2.317-2.519c-3.291-4.795-6.745-6.868-12.028-7.233c-7.761-.529-12.759 3.535-12.718 10.321c0 1.991.284 3.169 1.097 4.795c1.706 3.535 4.876 5.648 14.832 9.955c18.326 7.884 26.168 13.085 31.045 20.48c5.445 8.249 6.664 21.415 2.966 31.208c-4.063 10.646-14.141 17.879-28.323 20.277c-4.388.772-14.791.65-19.504-.203c-10.281-1.829-20.033-6.908-26.047-13.572c-2.357-2.601-6.949-9.387-6.664-9.875c.121-.162 1.178-.812 2.356-1.503c1.138-.65 5.446-3.129 9.509-5.486l7.355-4.267l1.544 2.276c2.154 3.291 6.867 7.802 9.712 9.305c8.167 4.308 19.383 3.698 24.909-1.259c2.357-2.154 3.332-4.389 3.332-7.68c0-2.967-.366-4.267-1.91-6.502c-1.991-2.844-6.054-5.242-17.595-10.24c-13.206-5.689-18.895-9.224-24.096-14.832c-3.007-3.25-5.852-8.452-7.03-12.8c-.975-3.616-1.219-12.678-.447-16.335c2.722-12.759 12.353-21.658 26.25-24.3c4.511-.853 14.994-.528 19.424.569"/></g></svg>
    </g>
    <g transform="translate(80,0)">
      <svg xmlns="http://www.w3.org/2000/svg" width="60" height="60" viewBox="0 0 256 256"><g fill="none"><rect width="256" height="256" fill="#f4f2ed" rx="60"/><path fill="#00d8ff" d="M128.001 146.951c10.304 0 18.656-8.353 18.656-18.656s-8.352-18.656-18.656-18.656s-18.656 8.353-18.656 18.656s8.353 18.656 18.656 18.656"/><path stroke="#00d8ff" stroke-width="8.911" d="M128.002 90.363c25.048 0 48.317 3.594 65.862 9.635C215.003 107.275 228 118.306 228 128.295c0 10.409-13.774 22.128-36.475 29.649c-17.162 5.686-39.746 8.654-63.523 8.654c-24.378 0-47.463-2.786-64.819-8.717C41.225 150.376 28 138.506 28 128.295c0-9.908 12.41-20.854 33.252-28.12c17.61-6.14 41.453-9.812 66.746-9.812z" clip-rule="evenodd"/><path stroke="#00d8ff" stroke-width="8.911" d="M94.981 109.438c12.514-21.698 27.251-40.06 41.249-52.24c16.864-14.677 32.914-20.425 41.566-15.436c9.017 5.2 12.288 22.988 7.463 46.41c-3.645 17.707-12.359 38.753-24.238 59.351c-12.179 21.118-26.124 39.724-39.931 51.792c-17.471 15.272-34.362 20.799-43.207 15.698c-8.583-4.946-11.865-21.167-7.747-42.852c3.479-18.323 12.21-40.812 24.841-62.723z" clip-rule="evenodd"/><path stroke="#00d8ff" stroke-width="8.911" d="M95.012 147.578c-12.549-21.674-21.093-43.616-24.659-61.826c-4.293-21.941-1.258-38.716 7.387-43.72c9.009-5.216 26.052.834 43.934 16.712c13.52 12.004 27.403 30.061 39.316 50.639c12.214 21.098 21.368 42.473 24.929 60.461c4.506 22.764.859 40.157-7.978 45.272c-8.574 4.964-24.265-.291-40.996-14.689c-14.136-12.164-29.26-30.959-41.933-52.849Z" clip-rule="evenodd"/></g></svg>
    </g>
    <g transform="translate(160,0)">
      <svg xmlns="http://www.w3.org/2000/svg" width="60" height="60" viewBox="0 0 256 256"><g fill="none"><rect width="256" height="256" fill="#f4f2ed" rx="60"/><path fill="url(#SVGYCM7xdyn)" fill-rule="evenodd" d="M83 110q9-36 45-36c36 0 40.5 27 58.5 31.5q18 4.502 31.5-13.5q-9 36-45 36c-36 0-40.5-27-58.5-31.5Q96.5 92 83 110m-45 54q9-36 45-36c36 0 40.5 27 58.5 31.5q18 4.502 31.5-13.5q-9 36-45 36c-36 0-40.5-27-58.5-31.5q-18-4.502-31.5 13.5" clip-rule="evenodd"/><defs><linearGradient id="SVGYCM7xdyn" x1="86.5" x2="163.5" y1="74" y2="185.5" gradientUnits="userSpaceOnUse"><stop stop-color="#32b1c1"/><stop offset="1" stop-color="#14c6b7"/></linearGradient></defs></g></svg>
    </g>
    <g transform="translate(240,0)">
      <svg xmlns="http://www.w3.org/2000/svg" width="60" height="60" viewBox="0 0 256 256"><g fill="none"><rect width="256" height="256" fill="#f4f2ed" rx="60"/><path fill="url(#SVGsQyxfe9t)" d="m227.088 57.602l-93.832 167.787c-1.938 3.465-6.915 3.485-8.881.038L28.682 57.617c-2.142-3.756 1.07-8.306 5.328-7.545l93.932 16.79a5.1 5.1 0 0 0 1.812-.004l91.968-16.763c4.243-.773 7.47 3.742 5.366 7.507"/><path fill="url(#SVGdJHY6cZM)" d="m172.687 28.05l-69.438 13.605a2.55 2.55 0 0 0-2.055 2.352l-4.272 72.141a2.55 2.55 0 0 0 3.118 2.635l19.333-4.461c1.809-.417 3.443 1.176 3.072 2.995l-5.744 28.126c-.387 1.893 1.391 3.511 3.239 2.95l11.941-3.628c1.851-.562 3.63 1.061 3.238 2.956l-9.128 44.179c-.571 2.764 3.105 4.271 4.638 1.901l1.024-1.582l56.582-112.92c.948-1.89-.686-4.046-2.763-3.646l-19.899 3.841c-1.87.36-3.461-1.381-2.934-3.21l12.989-45.026c.528-1.832-1.069-3.575-2.941-3.209"/><defs><linearGradient id="SVGsQyxfe9t" x1="26.346" x2="143.127" y1="44.075" y2="202.673" gradientUnits="userSpaceOnUse"><stop stop-color="#41d1ff"/><stop offset="1" stop-color="#bd34fe"/></linearGradient><linearGradient id="SVGdJHY6cZM" x1="122.551" x2="143.676" y1="31.743" y2="176.66" gradientUnits="userSpaceOnUse"><stop stop-color="#ffea83"/><stop offset=".083" stop-color="#ffdd35"/><stop offset="1" stop-color="#ffa800"/></linearGradient></defs></g></svg>
    </g>
    <g transform="translate(320,0)">
      <svg xmlns="http://www.w3.org/2000/svg" width="60" height="60" viewBox="0 0 256 256"><g fill="none"><rect width="256" height="256" fill="#f4f2ed" rx="60"/><path fill="#fefefe" fill-rule="evenodd" d="m203.819 68.835l-63.14-37.48a23.79 23.79 0 0 0-24.361 0l-63.14 37.48C45.642 73.31 41 81.575 41 90.522v74.961c0 8.945 4.643 17.215 12.18 21.689l63.14 37.473a23.8 23.8 0 0 0 12.179 3.354a23.8 23.8 0 0 0 12.178-3.354l63.14-37.473c7.536-4.474 12.182-12.744 12.182-21.689v-74.96c0-8.948-4.646-17.214-12.18-21.688" clip-rule="evenodd"/><path fill="#3e474a" fill-rule="evenodd" d="m118.527 220.808l-63.14-37.474c-6.176-3.666-10.013-10.506-10.013-17.852V90.523c0-7.346 3.837-14.186 10.01-17.85l63.143-37.48a19.55 19.55 0 0 1 9.972-2.747c3.495 0 6.943.95 9.973 2.747l63.14 37.48c5.204 3.089 8.714 8.438 9.701 14.437c-2.094-4.469-6.817-5.684-12.32-2.47l-59.734 36.897c-7.448 4.354-12.94 9.24-12.945 18.221v73.604c-.004 5.378 2.168 8.861 5.504 9.871c-1.096.19-2.201.322-3.319.322a19.55 19.55 0 0 1-9.972-2.747m85.292-151.974l-63.14-37.478A23.8 23.8 0 0 0 128.499 28a23.8 23.8 0 0 0-12.181 3.356l-63.14 37.478C45.642 73.308 41 81.576 41 90.524v74.958c0 8.945 4.643 17.215 12.18 21.689l63.14 37.475A23.84 23.84 0 0 0 128.499 228a23.83 23.83 0 0 0 12.178-3.354l63.142-37.475c7.536-4.474 12.18-12.744 12.18-21.689V90.523c0-8.947-4.644-17.215-12.18-21.689" clip-rule="evenodd"/><path fill="#47b353" fill-rule="evenodd" d="m187.267 172.729l-15.722 9.41c-.417.243-.723.516-.726 1.017v4.114c0 .503.338.712.754.467l15.966-9.703c.416-.243.48-.708.483-1.209v-3.629c0-.5-.338-.71-.755-.467" clip-rule="evenodd"/><path fill="#fefefe" fill-rule="evenodd" d="M153.788 138.098c.509-.258.928.059.935.725l.053 5.439c2.277-.906 4.255-1.148 6.047-.734c.389.104.561.633.402 1.261l-1.197 4.82c-.093.364-.298.732-.545.961a1.3 1.3 0 0 1-.315.234a.7.7 0 0 1-.472.077c-.818-.185-2.763-.61-5.823.94c-3.21 1.625-4.333 4.414-4.311 6.484c.027 2.472 1.295 3.221 5.673 3.296c5.834.097 8.355 2.646 8.416 8.522c.06 5.77-3.02 11.966-7.732 15.763l.104 5.384c.006.648-.415 1.391-.924 1.649l-3.189 1.837c-.511.258-.93-.06-.937-.708l-.055-5.296c-2.731 1.135-5.499 1.409-7.267.699c-.333-.13-.476-.622-.344-1.182l1.156-4.868c.092-.384.295-.768.571-1.012q.147-.142.299-.219c.183-.092.362-.112.514-.055c1.905.642 4.342.342 6.685-.844c2.977-1.506 4.968-4.542 4.937-7.558c-.029-2.737-1.51-3.874-5.113-3.901c-4.586.013-8.861-.891-8.932-7.642c-.057-5.558 2.833-11.342 7.408-14.999l-.057-5.435c-.007-.668.401-1.403.926-1.667z" clip-rule="evenodd"/></g></svg>
    </g>
  <g/>
</svg>